<svg xmlns="http://www.w3.org/2000/svg" width="1000" height="300" clip-rule="evenodd"><g><title transform="translate(398,110)">jscpd</title><g id="svg_5"><text id="svg_1" x="398" y="168.5" fill="#007bff" stroke="#000" stroke-width="0" font-family="'Courier New', Courier, monospace" font-size="70" font-weight="normal" text-anchor="start" xml:space="preserve">js</text><text id="svg_3" x="476" y="168.5" fill="#B200B2" stroke="#000" stroke-width="0" font-family="'Courier New', Courier, monospace" font-size="70" font-weight="normal" text-anchor="start" xml:space="preserve">cpd</text><text id="svg_2" x="420" y="200" fill="#b2b2b2" stroke="#000" stroke-width="0" font-family="'Courier New', Courier, monospace" font-size="15" font-weight="normal" text-anchor="start" transform="matrix(1,0,0,1,0,0)" xml:space="preserve">Copy/Paste Detector</text></g></g><g><title>background</title><rect id="canvas_background" width="582" height="402" x="-1" y="-1" fill="none"/><rect id="svg_4" width="105" height="78" x="451.508" y="38.437" fill="#666" stroke="#000" stroke-width="0"/><rect id="svg_7" width="93" height="66" x="457.508" y="44.438" fill="#f0f0f0" stroke="#000" stroke-opacity="null" stroke-width="0"/><rect id="svg_11" width="39" height="4" x="465.5" y="54.438" fill="#007bff" stroke="#000" stroke-opacity="null" stroke-width="0"/><rect id="svg_13" width="59" height="4" x="477.5" y="64.438" fill="#B200B2" stroke="#000" stroke-opacity="null" stroke-width="0"/><rect id="svg_14" width="46" height="4" x="480.5" y="76.438" fill="#ffaa56" stroke="#000" stroke-opacity="null" stroke-width="0"/><rect id="svg_15" width="46" height="4" x="469.5" y="88.438" fill="#b2b2b2" stroke="#000" stroke-opacity="null" stroke-width="0"/><rect id="svg_16" width="64" height="4" x="467.5" y="100.438" fill="#0d0" stroke="#000" stroke-opacity="null" stroke-width="0"/><rect id="svg_18" width="5" height="28" x="464.5" y="14.438" fill="#666" stroke="#000" stroke-opacity="null" stroke-width="0" transform="rotate(-32.232784271240234 467,28.437500000000046)"/><rect id="svg_19" width="5" height="28" x="477.5" y="14.438" fill="#666" stroke="#000" stroke-opacity="null" stroke-width="0" transform="rotate(29.680898666381836 480,28.437500000000053)"/></g></svg>